<svg width="92" height="81" viewBox="0 0 115 81" fill="none" xmlns="http://www.w3.org/2000/svg">
<path d="M6.38829 13.103L23.866 0.397095L1.81079 11.1177L0.562378 28.9853L3.0592 32.5589L45.9213 46.0589L57.157 81L52.1633 41.6912L6.80443 27L6.38829 13.103Z" fill="url(#paint0_linear_26_35)"/>
<path d="M109.59 13.5L91.6963 0L113.752 10.7206L115 28.5882L112.503 32.1618L69.6411 45.6618L58.4054 81L63.399 41.6912L108.758 27L109.59 13.5Z" fill="url(#paint1_linear_26_35)"/>
<path d="M32.6049 59.9559L16.3756 42.8823L40.9276 50.4264L44.6729 62.7353L38.0147 52.8088L26.779 49.6323L32.6049 59.9559Z" fill="url(#paint2_linear_26_35)"/>
<path d="M82.9575 59.9559L99.1868 42.8823L74.6347 50.4264L70.8895 62.7353L77.5477 52.8088L88.7834 49.6323L82.9575 59.9559Z" fill="url(#paint3_linear_26_35)"/>
<path d="M97.6 14.4176H98.535V22.5026L92.705 16.3866V22.1176H91.77V14.0326L97.6 20.1486V14.4176Z" fill="url(#paint4_linear_26_35)"/>
<path d="M83.6296 18.2676C83.6296 18.847 83.7543 19.364 84.0036 19.8186C84.2603 20.2733 84.6086 20.6326 85.0486 20.8966C85.4886 21.1606 85.9873 21.2926 86.5446 21.2926C87.1093 21.2926 87.6079 21.1606 88.0406 20.8966C88.4806 20.6326 88.8253 20.2733 89.0746 19.8186C89.3313 19.364 89.4596 18.847 89.4596 18.2676C89.4596 17.6883 89.3313 17.1713 89.0746 16.7166C88.8253 16.262 88.4806 15.9026 88.0406 15.6386C87.6079 15.3746 87.1093 15.2426 86.5446 15.2426C85.9873 15.2426 85.4886 15.3746 85.0486 15.6386C84.6086 15.9026 84.2603 16.262 84.0036 16.7166C83.7543 17.1713 83.6296 17.6883 83.6296 18.2676ZM82.6396 18.2676C82.6396 17.703 82.7349 17.1823 82.9256 16.7056C83.1236 16.2216 83.3986 15.8036 83.7506 15.4516C84.1026 15.0923 84.5169 14.8136 84.9936 14.6156C85.4703 14.4103 85.9873 14.3076 86.5446 14.3076C87.1093 14.3076 87.6263 14.4103 88.0956 14.6156C88.5723 14.8136 88.9866 15.0923 89.3386 15.4516C89.6906 15.8036 89.9619 16.2216 90.1526 16.7056C90.3506 17.1823 90.4496 17.703 90.4496 18.2676C90.4496 18.825 90.3506 19.3456 90.1526 19.8296C89.9619 20.3136 89.6906 20.7353 89.3386 21.0946C88.9866 21.4466 88.5723 21.7253 88.0956 21.9306C87.6263 22.1286 87.1093 22.2276 86.5446 22.2276C85.9873 22.2276 85.4703 22.1286 84.9936 21.9306C84.5169 21.7253 84.1026 21.4466 83.7506 21.0946C83.3986 20.7353 83.1236 20.3136 82.9256 19.8296C82.7349 19.3456 82.6396 18.825 82.6396 18.2676Z" fill="url(#paint5_linear_26_35)"/>
<path d="M80.3833 14.4176H81.3183V22.1176H80.3833V14.4176Z" fill="url(#paint6_linear_26_35)"/>
<path d="M74.5 15.2976V14.4176H79.395V15.2976H77.415V22.1176H76.48V15.2976H74.5Z" fill="url(#paint7_linear_26_35)"/>
<path d="M69.5187 19.8076L69.8487 18.9276H73.2587L73.5887 19.8076H69.5187ZM71.5317 16.1556L70.2337 19.2136L70.1457 19.4116L69.0017 22.1176H67.9567L71.5317 14.0326L75.1067 22.1176H74.0617L72.9397 19.4776L72.8517 19.2576L71.5317 16.1556Z" fill="url(#paint8_linear_26_35)"/>
<path d="M63.4966 14.4176H64.4316V21.2376H67.4566V22.1176H63.4966V14.4176Z" fill="url(#paint9_linear_26_35)"/>
<path d="M58.5444 14.4176H59.4794V21.2376H62.5044V22.1176H58.5444V14.4176Z" fill="url(#paint10_linear_26_35)"/>
<path d="M53.0136 22.1176V21.2376H56.8966V22.1176H53.0136ZM53.0136 15.2976V14.4176H56.8966V15.2976H53.0136ZM53.0136 18.3776V17.4976H56.6766V18.3776H53.0136ZM52.4966 14.4176H53.4316V22.1176H52.4966V14.4176Z" fill="url(#paint11_linear_26_35)"/>
<path d="M46.6133 15.2976V14.4176H51.5083V15.2976H49.5283V22.1176H48.5933V15.2976H46.6133Z" fill="url(#paint12_linear_26_35)"/>
<path d="M41.6429 19.7856C41.8189 20.0936 42.0022 20.365 42.1929 20.5996C42.3909 20.8343 42.6109 21.0176 42.8529 21.1496C43.0949 21.2816 43.3699 21.3476 43.6779 21.3476C44.0886 21.3476 44.4186 21.234 44.6679 21.0066C44.9172 20.7793 45.0419 20.4896 45.0419 20.1376C45.0419 19.793 44.9612 19.518 44.7999 19.3126C44.6386 19.1073 44.4259 18.9423 44.1619 18.8176C43.9052 18.6856 43.6302 18.5683 43.3369 18.4656C43.1462 18.3996 42.9336 18.3153 42.6989 18.2126C42.4642 18.1026 42.2406 17.967 42.0279 17.8056C41.8152 17.637 41.6392 17.4316 41.4999 17.1896C41.3679 16.9476 41.3019 16.6506 41.3019 16.2986C41.3019 15.9173 41.3972 15.5763 41.5879 15.2756C41.7786 14.975 42.0426 14.7403 42.3799 14.5716C42.7172 14.3956 43.1022 14.3076 43.5349 14.3076C43.9529 14.3076 44.3159 14.3883 44.6239 14.5496C44.9392 14.7036 45.2069 14.9053 45.4269 15.1546C45.6469 15.3966 45.8192 15.6533 45.9439 15.9246L45.1409 16.3866C45.0456 16.196 44.9246 16.009 44.7779 15.8256C44.6312 15.6423 44.4516 15.492 44.2389 15.3746C44.0336 15.2573 43.7806 15.1986 43.4799 15.1986C43.0619 15.1986 42.7576 15.3013 42.5669 15.5066C42.3762 15.7046 42.2809 15.9283 42.2809 16.1776C42.2809 16.3903 42.3359 16.5883 42.4459 16.7716C42.5559 16.9476 42.7392 17.1163 42.9959 17.2776C43.2599 17.4316 43.6156 17.5856 44.0629 17.7396C44.2682 17.813 44.4846 17.9083 44.7119 18.0256C44.9392 18.143 45.1482 18.2933 45.3389 18.4766C45.5369 18.6526 45.6982 18.869 45.8229 19.1256C45.9476 19.375 46.0099 19.6756 46.0099 20.0276C46.0099 20.365 45.9439 20.6693 45.8119 20.9406C45.6872 21.212 45.5112 21.443 45.2839 21.6336C45.0639 21.8243 44.8109 21.971 44.5249 22.0736C44.2462 22.1763 43.9529 22.2276 43.6449 22.2276C43.2269 22.2276 42.8382 22.1396 42.4789 21.9636C42.1269 21.7803 41.8152 21.542 41.5439 21.2486C41.2799 20.948 41.0636 20.629 40.8949 20.2916L41.6429 19.7856Z" fill="url(#paint13_linear_26_35)"/>
<path d="M38.6576 14.4176H39.5926V22.5026L33.7626 16.3866V22.1176H32.8276V14.0326L38.6576 20.1486V14.4176Z" fill="url(#paint14_linear_26_35)"/>
<path d="M24.6872 18.2676C24.6872 18.847 24.8119 19.364 25.0612 19.8186C25.3179 20.2733 25.6662 20.6326 26.1062 20.8966C26.5462 21.1606 27.0449 21.2926 27.6022 21.2926C28.1669 21.2926 28.6655 21.1606 29.0982 20.8966C29.5382 20.6326 29.8829 20.2733 30.1322 19.8186C30.3889 19.364 30.5172 18.847 30.5172 18.2676C30.5172 17.6883 30.3889 17.1713 30.1322 16.7166C29.8829 16.262 29.5382 15.9026 29.0982 15.6386C28.6655 15.3746 28.1669 15.2426 27.6022 15.2426C27.0449 15.2426 26.5462 15.3746 26.1062 15.6386C25.6662 15.9026 25.3179 16.262 25.0612 16.7166C24.8119 17.1713 24.6872 17.6883 24.6872 18.2676ZM23.6972 18.2676C23.6972 17.703 23.7925 17.1823 23.9832 16.7056C24.1812 16.2216 24.4562 15.8036 24.8082 15.4516C25.1602 15.0923 25.5745 14.8136 26.0512 14.6156C26.5279 14.4103 27.0449 14.3076 27.6022 14.3076C28.1669 14.3076 28.6839 14.4103 29.1532 14.6156C29.6299 14.8136 30.0442 15.0923 30.3962 15.4516C30.7482 15.8036 31.0195 16.2216 31.2102 16.7056C31.4082 17.1823 31.5072 17.703 31.5072 18.2676C31.5072 18.825 31.4082 19.3456 31.2102 19.8296C31.0195 20.3136 30.7482 20.7353 30.3962 21.0946C30.0442 21.4466 29.6299 21.7253 29.1532 21.9306C28.6839 22.1286 28.1669 22.2276 27.6022 22.2276C27.0449 22.2276 26.5279 22.1286 26.0512 21.9306C25.5745 21.7253 25.1602 21.4466 24.8082 21.0946C24.4562 20.7353 24.1812 20.3136 23.9832 19.8296C23.7925 19.3456 23.6972 18.825 23.6972 18.2676Z" fill="url(#paint15_linear_26_35)"/>
<path d="M17.1569 18.2676C17.1569 18.8616 17.2889 19.386 17.5529 19.8406C17.8242 20.2953 18.1762 20.651 18.6089 20.9076C19.0416 21.1643 19.5109 21.2926 20.0169 21.2926C20.3836 21.2926 20.7172 21.245 21.0179 21.1496C21.3259 21.0543 21.6046 20.9223 21.8539 20.7536C22.1033 20.5776 22.3159 20.376 22.4919 20.1486V21.3806C22.1692 21.6666 21.8172 21.8793 21.4359 22.0186C21.0546 22.158 20.5816 22.2276 20.0169 22.2276C19.4816 22.2276 18.9792 22.1323 18.5099 21.9416C18.0479 21.7436 17.6409 21.4686 17.2889 21.1166C16.9369 20.7573 16.6619 20.3356 16.4639 19.8516C16.2659 19.3676 16.1669 18.8396 16.1669 18.2676C16.1669 17.6956 16.2659 17.1676 16.4639 16.6836C16.6619 16.1996 16.9369 15.7816 17.2889 15.4296C17.6409 15.0703 18.0479 14.7953 18.5099 14.6046C18.9792 14.4066 19.4816 14.3076 20.0169 14.3076C20.5816 14.3076 21.0546 14.3773 21.4359 14.5166C21.8172 14.656 22.1692 14.8686 22.4919 15.1546V16.3866C22.3159 16.1593 22.1033 15.9613 21.8539 15.7926C21.6046 15.6166 21.3259 15.481 21.0179 15.3856C20.7172 15.2903 20.3836 15.2426 20.0169 15.2426C19.5109 15.2426 19.0416 15.371 18.6089 15.6276C18.1762 15.8843 17.8242 16.24 17.5529 16.6946C17.2889 17.142 17.1569 17.6663 17.1569 18.2676Z" fill="url(#paint16_linear_26_35)"/>
<defs>
<linearGradient id="paint0_linear_26_35" x1="-6.51195" y1="44.4706" x2="75.7354" y2="56.2251" gradientUnits="userSpaceOnUse">
<stop offset="0.47862" stop-color="#CEA950"/>
<stop offset="0.565" stop-color="white"/>
<stop offset="0.688814" stop-color="#CEA950"/>
</linearGradient>
<linearGradient id="paint1_linear_26_35" x1="118.745" y1="25.4118" x2="50.3354" y2="63.8208" gradientUnits="userSpaceOnUse">
<stop offset="0.304" stop-color="#CEA950"/>
<stop offset="0.424" stop-color="#EEEEEE"/>
<stop offset="0.524" stop-color="#CEA950"/>
</linearGradient>
<linearGradient id="paint2_linear_26_35" x1="48.8342" y1="55.1911" x2="18.4568" y2="54.755" gradientUnits="userSpaceOnUse">
<stop offset="0.3" stop-color="#CEA950"/>
<stop offset="0.5" stop-color="white"/>
<stop offset="0.704" stop-color="#CEA950"/>
</linearGradient>
<linearGradient id="paint3_linear_26_35" x1="106.261" y1="44.0735" x2="70.7183" y2="62.0565" gradientUnits="userSpaceOnUse">
<stop offset="0.324" stop-color="#CEA950"/>
<stop offset="0.5" stop-color="white"/>
<stop offset="0.629" stop-color="#CEA950"/>
</linearGradient>
<linearGradient id="paint4_linear_26_35" x1="12.6303" y1="18.4558" x2="102.516" y2="18.4558" gradientUnits="userSpaceOnUse">
<stop offset="0.169" stop-color="#E4C573"/>
<stop offset="0.26" stop-color="white"/>
<stop offset="0.324" stop-color="#E4C573"/>
<stop offset="0.602448" stop-color="#E4C573"/>
<stop offset="0.645003" stop-color="white"/>
<stop offset="0.739" stop-color="#E4C573"/>
</linearGradient>
<linearGradient id="paint5_linear_26_35" x1="12.6304" y1="18.4559" x2="102.516" y2="18.4559" gradientUnits="userSpaceOnUse">
<stop offset="0.169" stop-color="#E4C573"/>
<stop offset="0.26" stop-color="white"/>
<stop offset="0.324" stop-color="#E4C573"/>
<stop offset="0.602448" stop-color="#E4C573"/>
<stop offset="0.645003" stop-color="white"/>
<stop offset="0.739" stop-color="#E4C573"/>
</linearGradient>
<linearGradient id="paint6_linear_26_35" x1="12.6303" y1="18.4558" x2="102.516" y2="18.4558" gradientUnits="userSpaceOnUse">
<stop offset="0.169" stop-color="#E4C573"/>
<stop offset="0.26" stop-color="white"/>
<stop offset="0.324" stop-color="#E4C573"/>
<stop offset="0.602448" stop-color="#E4C573"/>
<stop offset="0.645003" stop-color="white"/>
<stop offset="0.739" stop-color="#E4C573"/>
</linearGradient>
<linearGradient id="paint7_linear_26_35" x1="12.6303" y1="18.4558" x2="102.516" y2="18.4558" gradientUnits="userSpaceOnUse">
<stop offset="0.169" stop-color="#E4C573"/>
<stop offset="0.26" stop-color="white"/>
<stop offset="0.324" stop-color="#E4C573"/>
<stop offset="0.602448" stop-color="#E4C573"/>
<stop offset="0.645003" stop-color="white"/>
<stop offset="0.739" stop-color="#E4C573"/>
</linearGradient>
<linearGradient id="paint8_linear_26_35" x1="12.6303" y1="18.4558" x2="102.516" y2="18.4558" gradientUnits="userSpaceOnUse">
<stop offset="0.169" stop-color="#E4C573"/>
<stop offset="0.26" stop-color="white"/>
<stop offset="0.324" stop-color="#E4C573"/>
<stop offset="0.602448" stop-color="#E4C573"/>
<stop offset="0.645003" stop-color="white"/>
<stop offset="0.739" stop-color="#E4C573"/>
</linearGradient>
<linearGradient id="paint9_linear_26_35" x1="12.6304" y1="18.4558" x2="102.516" y2="18.4558" gradientUnits="userSpaceOnUse">
<stop offset="0.169" stop-color="#E4C573"/>
<stop offset="0.26" stop-color="white"/>
<stop offset="0.324" stop-color="#E4C573"/>
<stop offset="0.602448" stop-color="#E4C573"/>
<stop offset="0.645003" stop-color="white"/>
<stop offset="0.739" stop-color="#E4C573"/>
</linearGradient>
<linearGradient id="paint10_linear_26_35" x1="12.6304" y1="18.4558" x2="102.516" y2="18.4558" gradientUnits="userSpaceOnUse">
<stop offset="0.169" stop-color="#E4C573"/>
<stop offset="0.26" stop-color="white"/>
<stop offset="0.324" stop-color="#E4C573"/>
<stop offset="0.602448" stop-color="#E4C573"/>
<stop offset="0.645003" stop-color="white"/>
<stop offset="0.739" stop-color="#E4C573"/>
</linearGradient>
<linearGradient id="paint11_linear_26_35" x1="12.6304" y1="18.4558" x2="102.516" y2="18.4558" gradientUnits="userSpaceOnUse">
<stop offset="0.169" stop-color="#E4C573"/>
<stop offset="0.26" stop-color="white"/>
<stop offset="0.324" stop-color="#E4C573"/>
<stop offset="0.602448" stop-color="#E4C573"/>
<stop offset="0.645003" stop-color="white"/>
<stop offset="0.739" stop-color="#E4C573"/>
</linearGradient>
<linearGradient id="paint12_linear_26_35" x1="12.6303" y1="18.4558" x2="102.516" y2="18.4558" gradientUnits="userSpaceOnUse">
<stop offset="0.169" stop-color="#E4C573"/>
<stop offset="0.26" stop-color="white"/>
<stop offset="0.324" stop-color="#E4C573"/>
<stop offset="0.602448" stop-color="#E4C573"/>
<stop offset="0.645003" stop-color="white"/>
<stop offset="0.739" stop-color="#E4C573"/>
</linearGradient>
<linearGradient id="paint13_linear_26_35" x1="12.6303" y1="18.4559" x2="102.516" y2="18.4559" gradientUnits="userSpaceOnUse">
<stop offset="0.169" stop-color="#E4C573"/>
<stop offset="0.26" stop-color="white"/>
<stop offset="0.324" stop-color="#E4C573"/>
<stop offset="0.602448" stop-color="#E4C573"/>
<stop offset="0.645003" stop-color="white"/>
<stop offset="0.739" stop-color="#E4C573"/>
</linearGradient>
<linearGradient id="paint14_linear_26_35" x1="12.6303" y1="18.4558" x2="102.516" y2="18.4558" gradientUnits="userSpaceOnUse">
<stop offset="0.169" stop-color="#E4C573"/>
<stop offset="0.26" stop-color="white"/>
<stop offset="0.324" stop-color="#E4C573"/>
<stop offset="0.602448" stop-color="#E4C573"/>
<stop offset="0.645003" stop-color="white"/>
<stop offset="0.739" stop-color="#E4C573"/>
</linearGradient>
<linearGradient id="paint15_linear_26_35" x1="12.6303" y1="18.4559" x2="102.516" y2="18.4559" gradientUnits="userSpaceOnUse">
<stop offset="0.169" stop-color="#E4C573"/>
<stop offset="0.26" stop-color="white"/>
<stop offset="0.324" stop-color="#E4C573"/>
<stop offset="0.602448" stop-color="#E4C573"/>
<stop offset="0.645003" stop-color="white"/>
<stop offset="0.739" stop-color="#E4C573"/>
</linearGradient>
<linearGradient id="paint16_linear_26_35" x1="12.6303" y1="18.4559" x2="102.516" y2="18.4559" gradientUnits="userSpaceOnUse">
<stop offset="0.169" stop-color="#E4C573"/>
<stop offset="0.26" stop-color="white"/>
<stop offset="0.324" stop-color="#E4C573"/>
<stop offset="0.602448" stop-color="#E4C573"/>
<stop offset="0.645003" stop-color="white"/>
<stop offset="0.739" stop-color="#E4C573"/>
</linearGradient>
</defs>
</svg>
