<svg width="36" height="36" viewBox="0 0 36 36" fill="none" xmlns="http://www.w3.org/2000/svg">
<path d="M10.0382 33.8626L10.0372 33.8621C4.00257 30.8412 0.25 24.7628 0.25 17.9999C0.25 13.1658 2.15768 8.64882 5.62326 5.27643C9.08727 1.90671 13.6658 0.133398 18.498 0.255952C28.0049 0.517193 35.75 8.62682 35.75 18.3396V23.0624C35.75 26.3358 33.086 28.9999 29.8125 28.9999C27.1219 28.9999 24.8423 27.2 24.1162 24.7404L24.0064 24.3685L23.713 24.622C22.1787 25.9473 20.1813 26.7499 18 26.7499C13.1757 26.7499 9.25 22.8242 9.25 17.9999C9.25 13.1755 13.1757 9.24985 18 9.24985C22.8243 9.24985 26.75 13.1755 26.75 17.9999V23.0624C26.75 24.7512 28.1236 26.1249 29.8125 26.1249C31.5014 26.1249 32.875 24.7512 32.875 23.0624V18.3396C32.875 10.1767 26.3968 3.34931 18.4186 3.13057L18.4183 3.13056C14.3684 3.02361 10.5303 4.51353 7.62753 7.33792C4.72449 10.1626 3.125 13.9498 3.125 17.9999C3.125 23.6657 6.2696 28.7613 11.3305 31.294C13.4044 32.344 15.6463 32.8749 18 32.8749C20.2691 32.8749 22.4343 32.3814 24.4393 31.4081L25.7385 33.974C23.3277 35.1519 20.7263 35.7499 18 35.7499C15.1891 35.7499 12.511 35.1142 10.0382 33.8626ZM18 12.1249C14.7603 12.1249 12.125 14.7602 12.125 17.9999C12.125 21.2395 14.7603 23.8749 18 23.8749C21.2397 23.8749 23.875 21.2395 23.875 17.9999C23.875 14.7602 21.2397 12.1249 18 12.1249Z" stroke="white" stroke-width="0.5"/>
</svg>
