<svg width="38" height="34" viewBox="0 0 38 34" fill="none" xmlns="http://www.w3.org/2000/svg">
<path d="M33.9421 1.00293C33.4219 1.02542 32.9445 1.17414 32.5251 1.33843C32.1377 1.49009 30.7464 2.07134 28.5309 2.99496C26.3154 3.91858 23.3797 5.14319 20.2505 6.4513C13.9922 9.06752 6.95936 12.0104 3.35577 13.5177C3.23202 13.569 2.72944 13.7219 2.17437 14.1433C1.61801 14.5657 1 15.4823 1 16.4848C1 17.2935 1.40616 18.1171 1.8966 18.5887C2.38704 19.0602 2.88409 19.2807 3.29951 19.4449V19.4414C4.70374 19.9975 8.89723 21.6653 9.89567 22.0625C10.2498 23.1173 11.7702 27.6333 12.1319 28.769H12.1284C12.384 29.5728 12.6332 30.0966 12.9793 30.5338C13.1523 30.7525 13.3588 30.9506 13.6122 31.107C13.7094 31.167 13.817 31.2136 13.9251 31.2573C13.9402 31.2636 13.9557 31.2652 13.9708 31.2712L13.9286 31.2608C13.96 31.2733 13.9881 31.2918 14.02 31.3027C14.0721 31.3205 14.1082 31.3199 14.1783 31.3342C14.4249 31.4096 14.6711 31.46 14.899 31.46C15.8777 31.46 16.4778 30.9323 16.4778 30.9323L16.5164 30.9043L20.7428 27.3501L25.9184 32.11C26.013 32.2427 26.7536 33.2388 28.4676 33.2388C29.4903 33.2388 30.299 32.7356 30.8163 32.2078C31.3337 31.6801 31.6559 31.14 31.8008 30.408L31.8043 30.4045C31.9199 29.8137 36.8745 5.08484 36.8745 5.08484L36.864 5.12678C37.0182 4.44263 37.0637 3.78102 36.8816 3.10679C36.6994 2.43256 36.2078 1.77458 35.6158 1.4293C35.0238 1.08401 34.4623 0.98044 33.9421 1.00293ZM33.2319 4.92058C33.0361 5.89761 28.5977 28.0603 28.3234 29.4505L20.8482 22.5762L15.7956 26.8224L17.195 21.3845C17.195 21.3845 26.8489 11.6718 27.4303 11.1063C27.8984 10.6536 27.9964 10.495 27.9964 10.3375C27.9964 10.1281 27.888 9.97754 27.6378 9.97754C27.4128 9.97754 27.1071 10.1919 26.9451 10.2921C24.8863 11.5679 16.1172 16.5349 11.8049 18.9731C11.5454 18.8697 7.64913 17.3146 5.5498 16.4813C9.28396 14.9192 15.6849 12.2425 21.6464 9.75037C24.775 8.44249 27.7099 7.21678 29.9232 6.29403C31.7916 5.51512 32.7662 5.11182 33.2319 4.92058ZM28.2707 29.7056H28.2742L28.2707 29.7161C28.273 29.7045 28.269 29.7146 28.2707 29.7056Z" stroke="white" stroke-width="0.5"/>
</svg>
