<svg width="38" height="38" viewBox="0 0 38 38" fill="none" xmlns="http://www.w3.org/2000/svg">
<path d="M15.8844 16.6569C16.1176 16.3824 16.2275 16.1575 16.3416 15.9239C16.3604 15.8856 16.3792 15.847 16.3988 15.808C16.6506 15.3042 16.5029 14.8603 16.3617 14.5755C16.3617 14.5755 16.3613 14.5748 16.3602 14.5725L16.356 14.5635L16.3423 14.5325C16.331 14.5067 16.3167 14.4733 16.2995 14.4324C16.2651 14.3507 16.2211 14.2439 16.1694 14.1174C16.0992 13.9458 16.0161 13.7411 15.9258 13.5185C15.8829 13.4128 15.8384 13.303 15.7928 13.1908C15.5119 12.4991 15.1899 11.712 14.9855 11.2572C14.7927 10.8292 14.5618 10.5364 14.2683 10.3662C13.9882 10.2038 13.7118 10.1933 13.5541 10.1873H12.4829C12.3369 10.1873 12.1923 10.2149 12.0566 10.2686V10.2686C11.8941 10.3328 11.7394 10.4234 11.6006 10.5298C11.3692 10.7073 11.0262 10.9676 11.0052 10.9899C10.5226 11.5029 9.38524 12.7116 9.38524 14.9831C9.38524 16.2009 9.82551 17.3691 10.2722 18.2487C10.7167 19.124 11.1894 19.7553 11.3145 19.9225L11.319 19.9284C11.319 19.9284 11.3206 19.9307 11.3233 19.9345L11.3361 19.9529C11.3469 19.9686 11.3606 19.9888 11.3778 20.0144C11.3844 20.0241 11.3914 20.0345 11.3988 20.0456C11.4298 20.0915 11.4682 20.1485 11.5129 20.2141C11.6243 20.3775 11.7764 20.5968 11.9672 20.8572C12.3486 21.3775 12.8845 22.0621 13.5598 22.7954C14.9053 24.2563 16.8283 25.9365 19.2099 26.8752C21.1233 27.6295 22.308 27.9455 23.1363 28.0566C23.8265 28.1491 24.2021 28.1474 24.5466 28.1063C24.6223 28.0973 24.9934 28.0628 25.061 28.0566L25.5 28L26.3225 27.71L27.2201 27.2133L28 26.5L28.5 25.5L28.6905 24.3664V23.2635L28.5 22.9303L27.8177 22.5L25.8895 21.5303C25.244 21.2185 24.5581 20.8938 24.3213 20.8079C24.1306 20.7388 23.8442 20.635 23.546 20.669C23.1922 20.7093 22.9262 20.9201 22.7228 21.2265L21.3408 22.9344L21.2397 23.0211C21.2301 23.0222 21.1596 23.0259 20.9681 22.9303C20.8807 22.8863 20.7675 22.8368 20.6314 22.7773C19.9867 22.4956 18.8277 21.9891 17.4632 20.7733C16.1871 19.6365 15.3188 18.2205 15.0638 17.7839C15.0249 17.7169 15.0185 17.6817 15.0174 17.6728C15.0167 17.6676 15.0174 17.6679 15.0174 17.6679C15.0196 17.6621 15.028 17.6435 15.0566 17.6081L15.8844 16.6569ZM15.8844 16.6569L15.8831 16.6584M31.7401 6.27066C28.3452 2.87389 23.8305 1.0018 19.0207 1C9.10941 1 1.04321 9.0626 1.03961 18.9739C1.03781 22.142 1.86585 25.2346 3.43913 27.9599L1 37.0018L10.4199 34.7751C13.0462 36.208 16.002 36.9622 19.0117 36.964H19.0189C28.9284 36.964 36.9946 28.8996 37 18.9901C37.0036 14.1857 35.1351 9.66923 31.7401 6.27066Z" stroke="white" stroke-width="0.5"/>
</svg>
